<svg xmlns="http://www.w3.org/2000/svg" viewBox="0 0 24 24">
  <rect width="24" height="24" rx="4" fill="#5865F2"/>
  <path fill="#fff" d="M16.7 8.2c-.9-.4-1.9-.7-2.9-.8l-.2.3c1 .1 1.9.4 2.8.8-1.1-.6-2.2-1-3.4-1.2-.2 0-.3.1-.4.2-.1.1-.2.2-.2.3-.6-.1-1.2-.1-1.8 0 0-.1-.1-.2-.2-.3-.1-.1-.2-.2-.4-.2-1.2.2-2.4.6-3.4 1.2.9-.4 1.8-.7 2.8-.8l-.2-.3c-1 .1-2 .4-2.9.8-1.9 2.7-2.4 5.4-2.1 8.1 1.2.9 2.4 1.5 3.6 1.9.3-.4.6-.8.8-1.2-.4-.2-.8-.4-1.2-.7.1-.1.2-.1.3-.2 2.3 1.1 4.8 1.1 7.1 0 .1.1.2.1.3.2-.4.3-.8.5-1.2.7.2.4.5.8.8 1.2 1.3-.4 2.5-1 3.6-1.9.4-2.9-.3-5.7-2.1-8.1zM9.5 14.4c-.7 0-1.3-.6-1.3-1.3 0-.7.6-1.3 1.3-1.3.7 0 1.3.6 1.3 1.3 0 .7-.6 1.3-1.3 1.3zm5 0c-.7 0-1.3-.6-1.3-1.3 0-.7.6-1.3 1.3-1.3.7 0 1.3.6 1.3 1.3 0 .7-.6 1.3-1.3 1.3z"/>
</svg>
