<svg xmlns="http://www.w3.org/2000/svg" viewBox="0 0 24 24">
  <rect width="24" height="24" rx="4" fill="#fff"/>
  <path d="M12 5.2c1.3 0 2.5.4 3.4 1.1l2.4-2.4C16.4 2.7 14.3 2 12 2 7.8 2 4.1 4.6 2.6 8.2l2.9 2.2C6.3 7.4 8.9 5.2 12 5.2z" fill="#ea4335"/>
  <path d="M21.4 10.3H12v3.6h5.4c-.3 1.6-1.7 3.3-5.4 3.3-3.2 0-5.9-2.6-5.9-6s2.7-6 5.9-6c1.6 0 2.9.5 3.9 1.3l2.6-2.6C16.7 2.7 14.5 2 12 2 6.5 2 2 6.5 2 12s4.5 10 10 10c5 0 9.3-3.6 9.3-9 0-.6-.1-1.2-.3-1.7z" fill="#34a853"/>
  <path d="M3.4 14.4C4.5 17.4 7.1 19.5 12 19.5c2.7 0 5.2-1.1 6.9-3L16 14.6c-1 .7-2.4 1.3-4 1.3-2.5 0-4.7-1.7-5.4-4.1L3.4 14.4z" fill="#4285f4"/>
  <path d="M19 20.5 16.6 18c-1 .9-2.4 1.5-4.6 1.5-3.3 0-6.1-2.2-7.1-5.3l-2.9 2.2C4.4 20.3 8 22 12 22c2.8 0 5.1-.9 6.8-2.5z" fill="#fbbc05"/>
</svg>
